<mxfile host="app.diagrams.net" modified="2024-01-23T23:09:59.152Z" agent="Mozilla/5.0 (Windows NT 10.0; Win64; x64) AppleWebKit/537.36 (KHTML, like Gecko) Chrome/120.0.0.0 Safari/537.36" etag="YdfL_nMdkCZ_dPc5VAkk" version="23.0.0" type="device">
  <diagram name="Page-1" id="0cxLK6B1qZ-80W-4j8hx">
    <mxGraphModel dx="1221" dy="630" grid="0" gridSize="10" guides="1" tooltips="1" connect="1" arrows="1" fold="1" page="0" pageScale="1" pageWidth="850" pageHeight="1100" math="0" shadow="0">
      <root>
        <mxCell id="0" />
        <mxCell id="1" parent="0" />
        <mxCell id="Iu25lgEWChFgaFbriD92-5" value="" style="curved=1;endArrow=classic;html=1;rounded=0;fontSize=14;fontStyle=1;exitX=1;exitY=0.5;exitDx=0;exitDy=0;entryX=0.5;entryY=0;entryDx=0;entryDy=0;" parent="1" source="WK32DhDvXuLAIViGbRyr-48" target="WK32DhDvXuLAIViGbRyr-4" edge="1">
          <mxGeometry width="50" height="50" relative="1" as="geometry">
            <mxPoint x="255" y="230" as="sourcePoint" />
            <mxPoint x="290" y="190" as="targetPoint" />
            <Array as="points">
              <mxPoint x="260" y="210" />
              <mxPoint x="270" y="190" />
            </Array>
          </mxGeometry>
        </mxCell>
        <mxCell id="Iu25lgEWChFgaFbriD92-103" value="&lt;font style=&quot;font-size: 18px;&quot;&gt;Output&lt;/font&gt;" style="rounded=1;whiteSpace=wrap;html=1;fillColor=#f5f5f5;gradientColor=#b3b3b3;strokeColor=#666666;fontSize=14;fontStyle=1;rotation=-90;" parent="1" vertex="1">
          <mxGeometry x="1212" y="280" width="90" height="35" as="geometry" />
        </mxCell>
        <mxCell id="Iu25lgEWChFgaFbriD92-110" value="" style="strokeWidth=2;html=1;shape=mxgraph.flowchart.annotation_1;align=left;pointerEvents=1;direction=south;fontSize=14;fontStyle=1" parent="1" vertex="1">
          <mxGeometry x="730" y="135.63" width="554" height="50" as="geometry" />
        </mxCell>
        <mxCell id="aZ4RtvFDJK5GRtdwdaWC-29" style="edgeStyle=orthogonalEdgeStyle;rounded=0;orthogonalLoop=1;jettySize=auto;html=1;entryX=0.477;entryY=1.101;entryDx=0;entryDy=0;entryPerimeter=0;" parent="1" source="Iu25lgEWChFgaFbriD92-111" target="aZ4RtvFDJK5GRtdwdaWC-18" edge="1">
          <mxGeometry relative="1" as="geometry" />
        </mxCell>
        <mxCell id="aZ4RtvFDJK5GRtdwdaWC-30" style="edgeStyle=orthogonalEdgeStyle;rounded=0;orthogonalLoop=1;jettySize=auto;html=1;entryX=0.482;entryY=1.005;entryDx=0;entryDy=0;entryPerimeter=0;" parent="1" source="Iu25lgEWChFgaFbriD92-111" target="aZ4RtvFDJK5GRtdwdaWC-10" edge="1">
          <mxGeometry relative="1" as="geometry" />
        </mxCell>
        <mxCell id="Iu25lgEWChFgaFbriD92-111" value="&lt;font style=&quot;font-size: 18px;&quot;&gt;/layer3/layer3.16/Add_output_0&lt;/font&gt;" style="text;html=1;align=center;verticalAlign=middle;resizable=0;points=[];autosize=1;strokeColor=none;fillColor=none;fontSize=14;fontStyle=1" parent="1" vertex="1">
          <mxGeometry x="561" y="393" width="283" height="34" as="geometry" />
        </mxCell>
        <mxCell id="Iu25lgEWChFgaFbriD92-123" value="&lt;font style=&quot;font-size: 18px;&quot;&gt;1st half Partitioned Model&lt;/font&gt;" style="text;html=1;align=center;verticalAlign=middle;resizable=0;points=[];autosize=1;strokeColor=none;fillColor=none;fontSize=14;fontStyle=1" parent="1" vertex="1">
          <mxGeometry x="279" y="98.63" width="237" height="34" as="geometry" />
        </mxCell>
        <mxCell id="Iu25lgEWChFgaFbriD92-145" value="&lt;font style=&quot;font-size: 48px;&quot;&gt;...&lt;/font&gt;" style="text;html=1;align=center;verticalAlign=middle;resizable=0;points=[];autosize=1;strokeColor=none;fillColor=none;fontSize=14;fontStyle=1" parent="1" vertex="1">
          <mxGeometry x="179" y="255" width="60" height="70" as="geometry" />
        </mxCell>
        <mxCell id="WK32DhDvXuLAIViGbRyr-26" style="edgeStyle=orthogonalEdgeStyle;rounded=0;orthogonalLoop=1;jettySize=auto;html=1;exitX=0.5;exitY=1;exitDx=0;exitDy=0;entryX=0.5;entryY=0;entryDx=0;entryDy=0;" parent="1" source="WK32DhDvXuLAIViGbRyr-4" target="WK32DhDvXuLAIViGbRyr-49" edge="1">
          <mxGeometry relative="1" as="geometry">
            <mxPoint x="345" y="186.25" as="targetPoint" />
          </mxGeometry>
        </mxCell>
        <mxCell id="WK32DhDvXuLAIViGbRyr-4" value="&lt;b&gt;&lt;font style=&quot;font-size: 18px;&quot;&gt;Conv&lt;/font&gt;&lt;/b&gt;" style="rounded=1;whiteSpace=wrap;html=1;fillColor=#0038A8;fontColor=#ffffff;strokeColor=#001DBC;rotation=-90;" parent="1" vertex="1">
          <mxGeometry x="276.87" y="169.39" width="65" height="33.74" as="geometry" />
        </mxCell>
        <mxCell id="WK32DhDvXuLAIViGbRyr-40" style="edgeStyle=orthogonalEdgeStyle;rounded=0;orthogonalLoop=1;jettySize=auto;html=1;exitX=0.5;exitY=1;exitDx=0;exitDy=0;entryX=0.5;entryY=0;entryDx=0;entryDy=0;" parent="1" source="WK32DhDvXuLAIViGbRyr-50" target="WK32DhDvXuLAIViGbRyr-39" edge="1">
          <mxGeometry relative="1" as="geometry">
            <mxPoint x="625" y="186.88" as="sourcePoint" />
          </mxGeometry>
        </mxCell>
        <mxCell id="WK32DhDvXuLAIViGbRyr-39" value="&lt;b&gt;&lt;font style=&quot;font-size: 18px;&quot;&gt;Conv&lt;/font&gt;&lt;/b&gt;" style="rounded=1;whiteSpace=wrap;html=1;fillColor=#0038A8;fontColor=#ffffff;strokeColor=#001DBC;rotation=-90;" parent="1" vertex="1">
          <mxGeometry x="490" y="170.01" width="65" height="33.74" as="geometry" />
        </mxCell>
        <mxCell id="WK32DhDvXuLAIViGbRyr-45" value="" style="curved=1;endArrow=classic;html=1;rounded=0;exitX=0.5;exitY=1;exitDx=0;exitDy=0;fontSize=14;fontStyle=1;entryX=1;entryY=0.5;entryDx=0;entryDy=0;" parent="1" source="WK32DhDvXuLAIViGbRyr-39" target="WK32DhDvXuLAIViGbRyr-46" edge="1">
          <mxGeometry width="50" height="50" relative="1" as="geometry">
            <mxPoint x="550" y="186.25" as="sourcePoint" />
            <mxPoint x="635" y="260" as="targetPoint" />
            <Array as="points">
              <mxPoint x="590" y="210" />
            </Array>
          </mxGeometry>
        </mxCell>
        <mxCell id="WK32DhDvXuLAIViGbRyr-121" style="edgeStyle=orthogonalEdgeStyle;rounded=0;orthogonalLoop=1;jettySize=auto;html=1;exitX=0.5;exitY=1;exitDx=0;exitDy=0;" parent="1" source="WK32DhDvXuLAIViGbRyr-46" edge="1">
          <mxGeometry relative="1" as="geometry">
            <mxPoint x="634" y="302" as="targetPoint" />
          </mxGeometry>
        </mxCell>
        <mxCell id="WK32DhDvXuLAIViGbRyr-46" value="&lt;b&gt;&lt;font style=&quot;font-size: 18px;&quot;&gt;Add&lt;/font&gt;&lt;/b&gt;" style="rounded=1;whiteSpace=wrap;html=1;fillColor=#76608a;fontColor=#ffffff;strokeColor=#432D57;rotation=-90;" parent="1" vertex="1">
          <mxGeometry x="555" y="285" width="65" height="33.74" as="geometry" />
        </mxCell>
        <mxCell id="WK32DhDvXuLAIViGbRyr-48" value="&lt;b&gt;&lt;font style=&quot;font-size: 18px;&quot;&gt;Relu&lt;/font&gt;&lt;/b&gt;" style="rounded=1;whiteSpace=wrap;html=1;fillColor=#a20025;fontColor=#ffffff;strokeColor=#6F0000;rotation=-90;" parent="1" vertex="1">
          <mxGeometry x="220" y="283.74" width="65" height="33.74" as="geometry" />
        </mxCell>
        <mxCell id="WK32DhDvXuLAIViGbRyr-152" style="edgeStyle=orthogonalEdgeStyle;rounded=0;orthogonalLoop=1;jettySize=auto;html=1;exitX=0.5;exitY=1;exitDx=0;exitDy=0;entryX=0.5;entryY=0;entryDx=0;entryDy=0;" parent="1" source="WK32DhDvXuLAIViGbRyr-49" target="WK32DhDvXuLAIViGbRyr-151" edge="1">
          <mxGeometry relative="1" as="geometry" />
        </mxCell>
        <mxCell id="WK32DhDvXuLAIViGbRyr-49" value="&lt;b&gt;&lt;font style=&quot;font-size: 18px;&quot;&gt;Relu&lt;/font&gt;&lt;/b&gt;" style="rounded=1;whiteSpace=wrap;html=1;fillColor=#a20025;fontColor=#ffffff;strokeColor=#6F0000;rotation=-90;" parent="1" vertex="1">
          <mxGeometry x="330" y="169.38" width="65" height="33.74" as="geometry" />
        </mxCell>
        <mxCell id="WK32DhDvXuLAIViGbRyr-50" value="&lt;b&gt;&lt;font style=&quot;font-size: 18px;&quot;&gt;Relu&lt;/font&gt;&lt;/b&gt;" style="rounded=1;whiteSpace=wrap;html=1;fillColor=#a20025;fontColor=#ffffff;strokeColor=#6F0000;rotation=-90;" parent="1" vertex="1">
          <mxGeometry x="440" y="170.01" width="65" height="33.74" as="geometry" />
        </mxCell>
        <mxCell id="WK32DhDvXuLAIViGbRyr-60" value="" style="curved=1;endArrow=classic;html=1;rounded=0;exitX=0;exitY=0.5;exitDx=0;exitDy=0;entryX=0;entryY=0.5;entryDx=0;entryDy=0;" parent="1" source="WK32DhDvXuLAIViGbRyr-48" target="WK32DhDvXuLAIViGbRyr-46" edge="1">
          <mxGeometry width="50" height="50" relative="1" as="geometry">
            <mxPoint x="290" y="300" as="sourcePoint" />
            <mxPoint x="340" y="250" as="targetPoint" />
            <Array as="points">
              <mxPoint x="270" y="410" />
              <mxPoint x="410" y="430" />
              <mxPoint x="580" y="410" />
            </Array>
          </mxGeometry>
        </mxCell>
        <mxCell id="WK32DhDvXuLAIViGbRyr-145" value="" style="strokeWidth=2;html=1;shape=mxgraph.flowchart.annotation_1;align=left;pointerEvents=1;direction=south;fontSize=14;fontStyle=1" parent="1" vertex="1">
          <mxGeometry x="142" y="135.63" width="551" height="50" as="geometry" />
        </mxCell>
        <mxCell id="WK32DhDvXuLAIViGbRyr-146" value="&lt;font style=&quot;font-size: 18px;&quot;&gt;2nd half Partitioned Model&lt;/font&gt;" style="text;html=1;align=center;verticalAlign=middle;resizable=0;points=[];autosize=1;strokeColor=none;fillColor=none;fontSize=14;fontStyle=1" parent="1" vertex="1">
          <mxGeometry x="921.8699999999999" y="98.63" width="243" height="34" as="geometry" />
        </mxCell>
        <mxCell id="WK32DhDvXuLAIViGbRyr-154" style="edgeStyle=orthogonalEdgeStyle;rounded=0;orthogonalLoop=1;jettySize=auto;html=1;exitX=0.5;exitY=1;exitDx=0;exitDy=0;entryX=0.5;entryY=0;entryDx=0;entryDy=0;" parent="1" source="WK32DhDvXuLAIViGbRyr-151" target="WK32DhDvXuLAIViGbRyr-50" edge="1">
          <mxGeometry relative="1" as="geometry" />
        </mxCell>
        <mxCell id="WK32DhDvXuLAIViGbRyr-151" value="&lt;b&gt;&lt;font style=&quot;font-size: 18px;&quot;&gt;Conv&lt;/font&gt;&lt;/b&gt;" style="rounded=1;whiteSpace=wrap;html=1;fillColor=#0038A8;fontColor=#ffffff;strokeColor=#001DBC;rotation=-90;" parent="1" vertex="1">
          <mxGeometry x="385" y="169.39" width="65" height="33.74" as="geometry" />
        </mxCell>
        <mxCell id="WK32DhDvXuLAIViGbRyr-156" value="" style="curved=1;endArrow=classic;html=1;rounded=0;fontSize=14;fontStyle=1;exitX=1;exitY=0.5;exitDx=0;exitDy=0;entryX=0.5;entryY=0;entryDx=0;entryDy=0;" parent="1" source="WK32DhDvXuLAIViGbRyr-163" target="WK32DhDvXuLAIViGbRyr-158" edge="1">
          <mxGeometry width="50" height="50" relative="1" as="geometry">
            <mxPoint x="841" y="230" as="sourcePoint" />
            <mxPoint x="876" y="190" as="targetPoint" />
            <Array as="points">
              <mxPoint x="846" y="210" />
              <mxPoint x="856" y="190" />
            </Array>
          </mxGeometry>
        </mxCell>
        <mxCell id="WK32DhDvXuLAIViGbRyr-157" style="edgeStyle=orthogonalEdgeStyle;rounded=0;orthogonalLoop=1;jettySize=auto;html=1;entryX=0.5;entryY=0;entryDx=0;entryDy=0;" parent="1" source="WK32DhDvXuLAIViGbRyr-158" target="WK32DhDvXuLAIViGbRyr-165" edge="1">
          <mxGeometry relative="1" as="geometry">
            <mxPoint x="931" y="186.25" as="targetPoint" />
          </mxGeometry>
        </mxCell>
        <mxCell id="WK32DhDvXuLAIViGbRyr-158" value="&lt;b&gt;&lt;font style=&quot;font-size: 18px;&quot;&gt;Conv&lt;/font&gt;&lt;/b&gt;" style="rounded=1;whiteSpace=wrap;html=1;fillColor=#0038A8;fontColor=#ffffff;strokeColor=#001DBC;rotation=-90;" parent="1" vertex="1">
          <mxGeometry x="862.8699999999999" y="169.39" width="65" height="33.74" as="geometry" />
        </mxCell>
        <mxCell id="WK32DhDvXuLAIViGbRyr-159" style="edgeStyle=orthogonalEdgeStyle;rounded=0;orthogonalLoop=1;jettySize=auto;html=1;exitX=0.5;exitY=1;exitDx=0;exitDy=0;entryX=0.5;entryY=0;entryDx=0;entryDy=0;" parent="1" source="WK32DhDvXuLAIViGbRyr-166" target="WK32DhDvXuLAIViGbRyr-160" edge="1">
          <mxGeometry relative="1" as="geometry">
            <mxPoint x="1211" y="186.88" as="sourcePoint" />
          </mxGeometry>
        </mxCell>
        <mxCell id="WK32DhDvXuLAIViGbRyr-160" value="&lt;b&gt;&lt;font style=&quot;font-size: 18px;&quot;&gt;Conv&lt;/font&gt;&lt;/b&gt;" style="rounded=1;whiteSpace=wrap;html=1;fillColor=#0038A8;fontColor=#ffffff;strokeColor=#001DBC;rotation=-90;" parent="1" vertex="1">
          <mxGeometry x="1076" y="170.01" width="65" height="33.74" as="geometry" />
        </mxCell>
        <mxCell id="WK32DhDvXuLAIViGbRyr-161" value="" style="curved=1;endArrow=classic;html=1;rounded=0;exitX=0.5;exitY=1;exitDx=0;exitDy=0;fontSize=14;fontStyle=1;entryX=1;entryY=0.5;entryDx=0;entryDy=0;" parent="1" source="WK32DhDvXuLAIViGbRyr-160" target="WK32DhDvXuLAIViGbRyr-162" edge="1">
          <mxGeometry width="50" height="50" relative="1" as="geometry">
            <mxPoint x="1136" y="186.25" as="sourcePoint" />
            <mxPoint x="1221" y="260" as="targetPoint" />
            <Array as="points">
              <mxPoint x="1176" y="210" />
            </Array>
          </mxGeometry>
        </mxCell>
        <mxCell id="WK32DhDvXuLAIViGbRyr-162" value="&lt;b&gt;&lt;font style=&quot;font-size: 18px;&quot;&gt;Add&lt;/font&gt;&lt;/b&gt;" style="rounded=1;whiteSpace=wrap;html=1;fillColor=#76608a;fontColor=#ffffff;strokeColor=#432D57;rotation=-90;" parent="1" vertex="1">
          <mxGeometry x="1141" y="285" width="65" height="33.74" as="geometry" />
        </mxCell>
        <mxCell id="WK32DhDvXuLAIViGbRyr-163" value="&lt;b&gt;&lt;font style=&quot;font-size: 18px;&quot;&gt;Relu&lt;/font&gt;&lt;/b&gt;" style="rounded=1;whiteSpace=wrap;html=1;fillColor=#a20025;fontColor=#ffffff;strokeColor=#6F0000;rotation=-90;" parent="1" vertex="1">
          <mxGeometry x="801" y="281.26" width="65" height="33.74" as="geometry" />
        </mxCell>
        <mxCell id="WK32DhDvXuLAIViGbRyr-164" style="edgeStyle=orthogonalEdgeStyle;rounded=0;orthogonalLoop=1;jettySize=auto;html=1;exitX=0.5;exitY=1;exitDx=0;exitDy=0;entryX=0.5;entryY=0;entryDx=0;entryDy=0;" parent="1" source="WK32DhDvXuLAIViGbRyr-165" target="WK32DhDvXuLAIViGbRyr-169" edge="1">
          <mxGeometry relative="1" as="geometry" />
        </mxCell>
        <mxCell id="WK32DhDvXuLAIViGbRyr-165" value="&lt;b&gt;&lt;font style=&quot;font-size: 18px;&quot;&gt;Relu&lt;/font&gt;&lt;/b&gt;" style="rounded=1;whiteSpace=wrap;html=1;fillColor=#a20025;fontColor=#ffffff;strokeColor=#6F0000;rotation=-90;" parent="1" vertex="1">
          <mxGeometry x="916" y="169.38" width="65" height="33.74" as="geometry" />
        </mxCell>
        <mxCell id="WK32DhDvXuLAIViGbRyr-166" value="&lt;b&gt;&lt;font style=&quot;font-size: 18px;&quot;&gt;Relu&lt;/font&gt;&lt;/b&gt;" style="rounded=1;whiteSpace=wrap;html=1;fillColor=#a20025;fontColor=#ffffff;strokeColor=#6F0000;rotation=-90;" parent="1" vertex="1">
          <mxGeometry x="1026" y="170.01" width="65" height="33.74" as="geometry" />
        </mxCell>
        <mxCell id="WK32DhDvXuLAIViGbRyr-167" value="" style="curved=1;endArrow=classic;html=1;rounded=0;exitX=0;exitY=0.5;exitDx=0;exitDy=0;entryX=0;entryY=0.5;entryDx=0;entryDy=0;" parent="1" source="WK32DhDvXuLAIViGbRyr-163" target="WK32DhDvXuLAIViGbRyr-162" edge="1">
          <mxGeometry width="50" height="50" relative="1" as="geometry">
            <mxPoint x="876" y="300" as="sourcePoint" />
            <mxPoint x="926" y="250" as="targetPoint" />
            <Array as="points">
              <mxPoint x="856" y="410" />
              <mxPoint x="996" y="430" />
              <mxPoint x="1166" y="410" />
            </Array>
          </mxGeometry>
        </mxCell>
        <mxCell id="WK32DhDvXuLAIViGbRyr-168" style="edgeStyle=orthogonalEdgeStyle;rounded=0;orthogonalLoop=1;jettySize=auto;html=1;exitX=0.5;exitY=1;exitDx=0;exitDy=0;entryX=0.5;entryY=0;entryDx=0;entryDy=0;" parent="1" source="WK32DhDvXuLAIViGbRyr-169" target="WK32DhDvXuLAIViGbRyr-166" edge="1">
          <mxGeometry relative="1" as="geometry" />
        </mxCell>
        <mxCell id="WK32DhDvXuLAIViGbRyr-169" value="&lt;b&gt;&lt;font style=&quot;font-size: 18px;&quot;&gt;Conv&lt;/font&gt;&lt;/b&gt;" style="rounded=1;whiteSpace=wrap;html=1;fillColor=#0038A8;fontColor=#ffffff;strokeColor=#001DBC;rotation=-90;" parent="1" vertex="1">
          <mxGeometry x="971" y="169.39" width="65" height="33.74" as="geometry" />
        </mxCell>
        <mxCell id="aZ4RtvFDJK5GRtdwdaWC-3" value="&lt;font style=&quot;font-size: 48px;&quot;&gt;...&lt;/font&gt;" style="text;html=1;align=center;verticalAlign=middle;resizable=0;points=[];autosize=1;strokeColor=none;fillColor=none;fontSize=14;fontStyle=1" parent="1" vertex="1">
          <mxGeometry x="1183" y="255" width="60" height="70" as="geometry" />
        </mxCell>
        <mxCell id="aZ4RtvFDJK5GRtdwdaWC-4" value="&lt;span style=&quot;font-size: 18px;&quot;&gt;Intermediate Layers&lt;/span&gt;" style="text;html=1;align=center;verticalAlign=middle;resizable=0;points=[];autosize=1;strokeColor=none;fillColor=none;fontSize=14;fontStyle=1" parent="1" vertex="1">
          <mxGeometry x="1140" y="432.37" width="188" height="34" as="geometry" />
        </mxCell>
        <mxCell id="aZ4RtvFDJK5GRtdwdaWC-5" value="" style="endArrow=classic;html=1;rounded=0;exitX=0.352;exitY=0.077;exitDx=0;exitDy=0;exitPerimeter=0;" parent="1" edge="1">
          <mxGeometry width="50" height="50" relative="1" as="geometry">
            <mxPoint x="1213.176" y="431.61799999999994" as="sourcePoint" />
            <mxPoint x="1213" y="308" as="targetPoint" />
          </mxGeometry>
        </mxCell>
        <mxCell id="aZ4RtvFDJK5GRtdwdaWC-10" value="&lt;font style=&quot;font-size: 18px;&quot;&gt;Output&lt;/font&gt;" style="text;html=1;align=center;verticalAlign=middle;resizable=0;points=[];autosize=1;strokeColor=none;fillColor=none;fontSize=14;fontStyle=1" parent="1" vertex="1">
          <mxGeometry x="628" y="285" width="77" height="34" as="geometry" />
        </mxCell>
        <mxCell id="aZ4RtvFDJK5GRtdwdaWC-18" value="&lt;font style=&quot;font-size: 18px;&quot;&gt;Input&lt;/font&gt;" style="text;html=1;align=center;verticalAlign=middle;resizable=0;points=[];autosize=1;strokeColor=none;fillColor=none;fontSize=14;fontStyle=1" parent="1" vertex="1">
          <mxGeometry x="722" y="285" width="62" height="34" as="geometry" />
        </mxCell>
        <mxCell id="aZ4RtvFDJK5GRtdwdaWC-28" value="" style="endArrow=classic;html=1;rounded=0;exitX=1.036;exitY=0.411;exitDx=0;exitDy=0;exitPerimeter=0;entryX=0.5;entryY=0;entryDx=0;entryDy=0;" parent="1" source="aZ4RtvFDJK5GRtdwdaWC-18" target="WK32DhDvXuLAIViGbRyr-163" edge="1">
          <mxGeometry width="50" height="50" relative="1" as="geometry">
            <mxPoint x="670" y="257" as="sourcePoint" />
            <mxPoint x="720" y="207" as="targetPoint" />
          </mxGeometry>
        </mxCell>
        <mxCell id="Owr7AvuxellGGrwUmuml-1" value="&lt;font style=&quot;font-size: 18px;&quot;&gt;Input&lt;/font&gt;" style="rounded=1;whiteSpace=wrap;html=1;fillColor=#f5f5f5;gradientColor=#b3b3b3;strokeColor=#666666;fontSize=14;fontStyle=1;rotation=-90;" parent="1" vertex="1">
          <mxGeometry x="124" y="280" width="90" height="35" as="geometry" />
        </mxCell>
      </root>
    </mxGraphModel>
  </diagram>
</mxfile>
